<svg xmlns="http://www.w3.org/2000/svg" viewBox="0 0 24 24"><path d="M12 0c.163 0 .326.003.487.01A11.987 11.987 0 0 1 24 12a11.988 11.988 0 0 1-9.928 11.821A11.994 11.994 0 0 1 2.67 19.546 11.998 11.998 0 0 1 12 0zm0 2a10.007 10.007 0 1 0 7.608 3.514A9.93 9.93 0 0 0 12 2zm0 1a8.99 8.99 0 1 1-1.382.106A8.964 8.964 0 0 1 12 3zm-3.255 9.961a2.079 2.079 0 0 0-.745.137 3.256 3.256 0 0 0 .746 2.275l.007.009.007.009a4.61 4.61 0 0 0 .37.387 3.409 3.409 0 0 0 2.28.87 3.751 3.751 0 0 0 3.237-2.66 1.727 1.727 0 0 1-.507.401 3.215 3.215 0 0 1-2.919-.058l-.187-.092a3.264 3.264 0 0 1-.718-.563l-.185-.186a1.596 1.596 0 0 0-1.386-.529zM15.384 6.5c-2.263.973-2.605 2.405-2.605 3.651v2.479c.006.6.025 1.042-.171 1.221 2.777 0 2.776-4.085 2.776-4.085z" fill="#2081E2"/></svg>